<?xml version="1.0" encoding="UTF-8" standalone="no"?>
<!DOCTYPE svg PUBLIC "-//W3C//DTD SVG 1.1//EN" "http://www.w3.org/Graphics/SVG/1.1/DTD/svg11.dtd">
<svg width="100%" height="100%" viewBox="0 0 288 124" version="1.1" xmlns="http://www.w3.org/2000/svg" xmlns:xlink="http://www.w3.org/1999/xlink" xml:space="preserve" xmlns:serif="http://www.serif.com/" style="fill-rule:evenodd;clip-rule:evenodd;stroke-linejoin:round;stroke-miterlimit:2;">
    <g transform="matrix(1,0,0,1,-139.464996,-221.790985)">
        <g>
            <path d="M240.749,304.535L267.142,221.791L281.798,221.791L303.972,273.344L305.02,273.344L321.464,221.791L338.269,221.791L311.875,304.535L297.339,304.535L275.117,252.753L274.07,252.753L257.553,304.535L240.749,304.535Z" style="fill:rgb(37,37,37);fill-rule:nonzero;"/>
            <path d="M251.553,221.928L176.444,221.928C170.929,239.968 155.466,239.968 155.466,239.968L151.92,251.566L167.383,251.566L151.231,304.398L226.339,304.398L251.553,221.928ZM228.914,238.68L213.943,287.646L173.87,287.646L183.403,256.463L188.84,238.68L228.914,238.68Z" style="fill:rgb(37,37,37);fill-rule:nonzero;"/>
            <path d="M349.393,287.85L354.452,271.303L412.369,271.303L417.346,255.023L359.429,255.023L364.489,238.476L422.405,238.476L427.465,221.928L353,221.928L327.787,304.398L402.251,304.398L407.31,287.85L349.393,287.85Z" style="fill:rgb(37,37,37);fill-rule:nonzero;"/>
            <path d="M139.465,344.562L148.378,316.619L166.938,316.619L165.344,321.616L152.715,321.616L150.392,328.897L161.921,328.897L160.397,333.679L148.868,333.679L145.396,344.562L139.465,344.562Z" style="fill:rgb(37,37,37);fill-rule:nonzero;"/>
            <path d="M177.583,344.562L186.496,316.619L192.427,316.619L183.514,344.562L177.583,344.562Z" style="fill:rgb(37,37,37);fill-rule:nonzero;"/>
            <path d="M211.341,344.562L218.661,321.616L210.156,321.616L211.75,316.619L234.69,316.619L233.097,321.616L224.592,321.616L217.273,344.562L211.341,344.562Z" style="fill:rgb(37,37,37);fill-rule:nonzero;"/>
            <path d="M245.1,344.562L254.013,316.619L258.962,316.619L266.451,334.029L266.804,334.029L272.357,316.619L278.033,316.619L269.119,344.562L264.211,344.562L256.706,327.075L256.351,327.075L250.775,344.562L245.1,344.562Z" style="fill:rgb(37,37,37);fill-rule:nonzero;"/>
            <path d="M307.321,344.562L288.546,344.562L297.459,316.619L316.234,316.619L314.641,321.616L301.796,321.616L299.715,328.14L311.834,328.14L310.358,332.769L298.239,332.769L296.07,339.566L308.915,339.566L307.321,344.562Z" style="fill:rgb(37,37,37);fill-rule:nonzero;"/>
            <path d="M334.581,336.798C334.465,337.365 334.492,337.879 334.66,338.336C334.827,338.796 335.12,339.186 335.532,339.509C335.949,339.832 336.473,340.08 337.112,340.255C337.75,340.428 338.488,340.515 339.325,340.515C340.1,340.515 340.833,340.428 341.531,340.255C342.23,340.08 342.86,339.834 343.427,339.519C343.99,339.202 344.474,338.826 344.876,338.385C345.279,337.946 345.563,337.462 345.734,336.934C345.872,336.495 345.909,336.094 345.842,335.732C345.775,335.371 345.588,335.049 345.287,334.765C344.982,334.48 344.557,334.226 344.009,333.999C343.458,333.773 342.779,333.57 341.974,333.389L338.528,332.614C333.731,331.555 332.014,328.897 333.374,324.636C333.794,323.319 334.433,322.124 335.29,321.053C336.15,319.983 337.173,319.063 338.362,318.294C339.551,317.526 340.876,316.934 342.344,316.522C343.811,316.109 345.362,315.902 347.001,315.902C348.558,315.902 349.926,316.109 351.104,316.522C352.281,316.934 353.229,317.514 353.948,318.256C354.666,318.998 355.137,319.886 355.357,320.918C355.578,321.951 355.511,323.087 355.154,324.327L349.576,324.327C349.69,323.77 349.673,323.266 349.527,322.815C349.383,322.364 349.139,321.977 348.789,321.654C348.442,321.331 347.99,321.083 347.438,320.908C346.883,320.733 346.246,320.646 345.527,320.646C344.781,320.646 344.08,320.727 343.427,320.888C342.771,321.051 342.181,321.282 341.653,321.585C341.124,321.89 340.671,322.258 340.297,322.691C339.925,323.122 339.655,323.604 339.486,324.132C339.209,324.998 339.348,325.695 339.909,326.224C340.466,326.752 341.521,327.193 343.071,327.541L346.263,328.258C347.594,328.553 348.7,328.931 349.582,329.391C350.464,329.85 351.131,330.401 351.588,331.047C352.044,331.691 352.292,332.439 352.336,333.293C352.377,334.145 352.227,335.112 351.881,336.198C351.432,337.604 350.763,338.869 349.873,339.993C348.984,341.117 347.917,342.068 346.673,342.849C345.431,343.629 344.035,344.231 342.486,344.65C340.937,345.07 339.274,345.28 337.494,345.28C335.805,345.28 334.335,345.083 333.087,344.688C331.835,344.296 330.839,343.731 330.091,342.995C329.343,342.259 328.859,341.369 328.636,340.322C328.412,339.277 328.483,338.1 328.847,336.798L334.581,336.798Z" style="fill:rgb(37,37,37);fill-rule:nonzero;"/>
            <path d="M375.824,336.798C375.708,337.365 375.734,337.879 375.903,338.336C376.07,338.796 376.362,339.186 376.775,339.509C377.192,339.832 377.716,340.08 378.354,340.255C378.993,340.428 379.73,340.515 380.568,340.515C381.342,340.515 382.076,340.428 382.773,340.255C383.473,340.08 384.103,339.834 384.67,339.519C385.233,339.202 385.717,338.826 386.119,338.385C386.521,337.946 386.806,337.462 386.977,336.934C387.115,336.495 387.152,336.094 387.085,335.732C387.017,335.371 386.83,335.049 386.53,334.765C386.225,334.48 385.8,334.226 385.251,333.999C384.7,333.773 384.021,333.57 383.216,333.389L379.771,332.614C374.974,331.555 373.256,328.897 374.616,324.636C375.037,323.319 375.675,322.124 376.533,321.053C377.393,319.983 378.415,319.063 379.604,318.294C380.793,317.526 382.119,316.934 383.586,316.522C385.054,316.109 386.605,315.902 388.243,315.902C389.8,315.902 391.168,316.109 392.347,316.522C393.524,316.934 394.471,317.514 395.191,318.256C395.908,318.998 396.38,319.886 396.599,320.918C396.821,321.951 396.754,323.087 396.396,324.327L390.818,324.327C390.932,323.77 390.916,323.266 390.77,322.815C390.625,322.364 390.381,321.977 390.032,321.654C389.684,321.331 389.233,321.083 388.68,320.908C388.125,320.733 387.489,320.646 386.769,320.646C386.023,320.646 385.322,320.727 384.67,320.888C384.013,321.051 383.424,321.282 382.895,321.585C382.367,321.89 381.913,322.258 381.539,322.691C381.167,323.122 380.897,323.604 380.728,324.132C380.452,324.998 380.59,325.695 381.151,326.224C381.708,326.752 382.763,327.193 384.314,327.541L387.505,328.258C388.837,328.553 389.942,328.931 390.825,329.391C391.707,329.85 392.373,330.401 392.831,331.047C393.286,331.691 393.534,332.439 393.579,333.293C393.62,334.145 393.469,335.112 393.124,336.198C392.674,337.604 392.006,338.869 391.115,339.993C390.227,341.117 389.16,342.068 387.916,342.849C386.674,343.629 385.277,344.231 383.729,344.65C382.18,345.07 380.517,345.28 378.736,345.28C377.047,345.28 375.578,345.083 374.33,344.688C373.077,344.296 372.082,343.731 371.333,342.995C370.585,342.259 370.102,341.369 369.878,340.322C369.655,339.277 369.726,338.1 370.089,336.798L375.824,336.798Z" style="fill:rgb(37,37,37);fill-rule:nonzero;"/>
        </g>
    </g>
</svg>
